<?xml version="1.0" standalone="no"?>
<!DOCTYPE svg PUBLIC "-//W3C//DTD SVG 20010904//EN"
 "http://www.w3.org/TR/2001/REC-SVG-20010904/DTD/svg10.dtd">
<svg version="1.0" xmlns="http://www.w3.org/2000/svg"
 width="528.000000pt" height="528.000000pt" viewBox="0 0 528.000000 528.000000"
 preserveAspectRatio="xMidYMid meet">
<metadata>
Created by potrace 1.11, written by Peter Selinger 2001-2013
</metadata>
<g transform="translate(0.000000,528.000000) scale(0.100000,-0.100000)"
fill="#000000" stroke="none">
<path d="M2449 5196 c-2 -2 -33 -7 -69 -10 -243 -25 -526 -95 -698 -172 -29
-13 -55 -24 -57 -24 -7 0 -203 -96 -250 -123 -96 -53 -287 -186 -360 -248
-149 -129 -317 -299 -377 -384 -4 -5 -19 -24 -33 -42 -49 -61 -165 -237 -165
-250 0 -7 -4 -13 -8 -13 -8 0 -97 -172 -142 -274 -48 -108 -128 -351 -144
-436 -3 -14 -14 -70 -25 -124 -12 -55 -24 -129 -27 -165 -4 -37 -11 -72 -18
-80 -8 -11 -8 -13 1 -8 8 5 11 0 10 -13 -1 -11 -4 -20 -7 -20 -3 0 -5 -18 -5
-40 0 -22 4 -40 8 -40 5 0 5 -5 1 -12 -10 -16 -11 -155 -2 -190 4 -19 3 -28
-5 -28 -8 0 -8 -3 -2 -8 15 -11 17 -32 2 -32 -8 0 -9 -3 -1 -8 6 -4 14 -38 17
-77 4 -38 9 -80 11 -92 3 -11 8 -43 11 -70 4 -26 11 -64 15 -83 5 -19 11 -46
14 -60 17 -84 38 -159 77 -270 31 -87 34 -95 64 -165 201 -471 554 -886 990
-1162 77 -49 275 -152 360 -188 22 -9 49 -21 60 -26 22 -9 224 -79 228 -78 1
0 9 -2 17 -4 60 -18 181 -47 225 -53 46 -7 92 -15 120 -19 119 -21 495 -28
625 -12 36 5 81 11 100 13 19 2 42 6 50 8 8 1 33 6 55 10 153 28 345 85 510
151 11 5 23 7 28 7 4 -1 7 3 7 8 0 6 6 10 13 10 15 0 241 115 278 141 15 10
32 19 37 19 6 0 12 3 14 8 2 4 30 25 63 46 199 130 422 335 578 531 4 5 33 44
63 85 30 41 58 80 62 85 9 11 45 70 95 153 27 47 82 158 129 262 71 156 150
424 173 583 3 27 8 59 11 70 6 31 15 106 17 147 1 19 6 38 12 42 6 5 5 8 -4 8
-10 0 -11 3 -2 13 6 8 8 17 4 21 -6 6 -6 25 1 114 1 18 -1 35 -6 38 -5 3 -5
10 -2 16 8 13 11 88 4 88 -3 0 -6 17 -6 38 -3 100 -10 182 -14 182 -3 0 -7 12
-8 28 -1 15 -5 38 -8 52 -3 14 -7 36 -9 50 -15 102 -96 377 -139 475 -8 17
-26 59 -42 95 -16 36 -42 90 -58 120 -16 30 -38 73 -50 95 -12 22 -38 65 -59
96 -20 31 -37 59 -37 62 0 4 -6 15 -14 24 -8 10 -53 68 -100 128 -128 166
-277 315 -452 450 -55 42 -107 83 -117 91 -9 8 -20 14 -23 14 -4 0 -36 20 -73
44 -280 184 -674 321 -1061 371 -43 6 -476 15 -481 11z"/>
</g>
</svg>
